<?xml version="1.0" standalone="no"?>
<!DOCTYPE svg PUBLIC "-//W3C//DTD SVG 20010904//EN"
 "http://www.w3.org/TR/2001/REC-SVG-20010904/DTD/svg10.dtd">
<svg version="1.0" xmlns="http://www.w3.org/2000/svg"
 width="376.000000pt" height="134.000000pt" viewBox="0 0 376.000000 134.000000"
 preserveAspectRatio="xMidYMid meet">

<g transform="translate(0.000000,134.000000) scale(0.100000,-0.100000)"
fill="#000000" stroke="none">
<path d="M243 1091 c-53 -38 -90 -87 -114 -151 -24 -64 -24 -116 1 -157 18
-31 76 -70 87 -59 3 3 -2 23 -11 46 -20 50 -20 102 -2 164 16 52 60 126 76
126 16 0 13 -551 -4 -628 -7 -34 -10 -64 -8 -67 14 -13 67 35 88 80 23 49 24
56 24 352 0 289 -1 303 -19 313 -34 18 -77 11 -118 -19z"/>
<path d="M1260 1073 c0 -84 -5 -92 -64 -95 -47 -3 -51 -5 -54 -30 -3 -26 0
-28 30 -28 79 0 78 0 78 -124 0 -100 -3 -118 -25 -163 -15 -28 -33 -57 -40
-63 -13 -11 -15 -7 -15 20 0 17 -7 44 -16 58 -13 22 -72 75 -116 103 -6 4 -1
24 11 47 25 49 27 88 5 96 -33 13 -57 5 -90 -28 -36 -36 -42 -67 -23 -110 11
-23 7 -35 -36 -108 -53 -94 -78 -123 -94 -114 -7 5 -11 60 -11 161 l0 154 -26
20 c-33 26 -74 27 -106 2 -29 -23 -71 -99 -90 -161 l-13 -45 -5 104 c-5 104
-5 104 -33 114 -56 18 -57 15 -57 -192 0 -104 4 -201 10 -215 7 -21 16 -26 42
-26 l33 0 22 91 c23 94 75 216 111 259 l21 25 1 -160 c0 -182 7 -208 57 -213
44 -4 95 44 163 157 30 50 58 91 61 91 14 0 89 -90 95 -114 7 -31 -18 -76 -43
-76 -8 0 -31 10 -51 22 l-35 21 -19 -23 c-39 -48 -1 -80 95 -80 94 0 148 35
195 124 l21 38 7 -38 c26 -147 141 -169 206 -41 l14 28 19 -40 c10 -22 28 -47
41 -56 50 -33 146 -7 175 46 l12 23 15 -30 c21 -40 41 -53 83 -54 27 0 42 7
65 31 28 29 29 30 44 11 47 -57 124 -57 188 1 22 20 22 20 22 1 0 -12 -30 -49
-74 -91 -41 -38 -84 -85 -95 -104 -82 -134 93 -243 198 -124 36 41 51 107 51
225 0 89 0 90 41 142 22 29 61 97 87 150 45 94 48 98 80 98 l33 0 -8 -62 c-23
-181 17 -278 116 -278 19 0 38 10 57 29 l27 29 28 -29 c47 -51 131 -37 188 31
15 19 20 21 21 9 0 -32 50 -69 91 -69 31 0 43 6 61 31 l23 31 5 -29 c5 -25 9
-28 51 -31 l47 -3 7 88 c7 90 34 194 58 227 11 15 15 2 24 -101 13 -132 25
-171 60 -179 38 -10 53 2 53 43 0 54 25 164 49 215 l19 43 1 -87 c1 -118 17
-185 51 -220 30 -29 75 -37 109 -18 23 12 51 80 51 121 0 42 -22 33 -35 -14
-6 -20 -18 -44 -28 -54 -15 -16 -18 -16 -33 -2 -25 26 -34 86 -33 209 1 148 4
137 -31 155 -66 34 -90 8 -129 -145 -9 -38 -20 -73 -24 -77 -4 -3 -7 37 -7 91
0 90 -2 99 -25 121 -13 14 -36 25 -50 25 -22 0 -30 -9 -51 -57 -14 -31 -28
-69 -31 -85 -11 -57 -21 -37 -17 34 3 40 1 79 -4 86 -5 7 -25 15 -45 19 l-36
5 -3 -153 c-3 -133 -6 -159 -24 -194 -25 -48 -56 -57 -76 -23 -9 16 -13 68
-13 178 0 85 -4 161 -8 168 -12 19 -77 16 -77 -4 0 -12 -7 -10 -32 11 -26 22
-39 26 -71 22 -47 -6 -79 -35 -109 -96 -18 -38 -23 -66 -25 -155 -2 -94 -5
-112 -22 -129 -25 -26 -48 -16 -66 28 -19 44 -19 97 1 191 23 112 8 134 -77
115 -59 -14 -69 -13 -63 3 9 24 -15 56 -41 56 -53 0 -85 -71 -50 -110 14 -15
14 -22 0 -59 -8 -23 -32 -75 -52 -114 l-38 -72 -3 155 c-3 167 -4 170 -59 170
-25 0 -33 -5 -34 -17 0 -11 -3 -13 -6 -5 -7 17 -57 42 -85 42 -44 0 -88 -38
-116 -98 -21 -47 -26 -73 -28 -155 -2 -104 -17 -147 -53 -147 -32 0 -41 43
-41 209 0 173 1 171 -61 171 -21 0 -29 -5 -29 -17 0 -11 -3 -14 -8 -7 -14 21
-57 44 -82 44 -74 0 -135 -91 -147 -217 -6 -72 -27 -126 -62 -157 -20 -18 -23
-18 -37 -4 -26 25 -33 92 -27 246 l6 142 62 0 c48 0 64 4 69 16 13 35 7 44
-33 44 -21 0 -52 3 -69 6 l-30 6 5 59 c6 56 5 59 -21 69 -15 5 -38 10 -52 10
-22 0 -24 -4 -24 -47z m432 -283 c34 -67 18 -216 -28 -265 -29 -31 -50 -29
-76 6 -40 53 -31 216 14 274 29 37 68 31 90 -15z m405 32 c21 -13 33 -62 33
-130 -1 -88 -26 -162 -63 -182 -27 -14 -29 -14 -52 12 -43 49 -43 185 0 268
19 37 53 50 82 32z m749 -17 c9 -14 19 -53 21 -88 12 -147 -72 -271 -126 -185
-19 31 -26 135 -12 198 20 91 81 130 117 75z m-716 -562 c-11 -52 -37 -83 -69
-83 -21 0 -51 30 -51 52 0 30 38 96 83 145 l42 46 3 -54 c2 -30 -2 -78 -8
-106z"/>
</g>
</svg>
